<?xml version="1.0" encoding="iso-8859-1"?>
<!-- Uploaded to: SVG Repo, www.svgrepo.com, Generator: SVG Repo Mixer Tools -->
<svg height="800px" width="800px" version="1.1" id="Layer_1" xmlns="http://www.w3.org/2000/svg" xmlns:xlink="http://www.w3.org/1999/xlink" 
	 viewBox="0 0 511.996 511.996" xml:space="preserve">
<path style="fill:#E6E9ED;" d="M211.185,251.606L52.796,93.218C21.68,94.156,0,130.921,0,130.921l181.013,181.027L211.185,251.606z"
	/>
<path style="fill:#CCD1D9;" d="M299.809,400.571v-0.016L13.219,113.983C4.836,122.733,0,130.921,0,130.921l27.25,27.265l0,0
	L284.73,415.65l0,0c4.156,4.172,10.922,4.172,15.078,0C303.98,411.477,303.98,404.727,299.809,400.571z"/>
<path style="fill:#434A54;" d="M209.302,400.571c-16.664-16.671-16.664-43.687,0-60.343l229.863-229.855
	c16.655-16.671,43.671-16.671,60.327,0c16.672,16.656,16.672,43.671,0,60.343L269.637,400.571
	C252.973,417.227,225.965,417.227,209.302,400.571z"/>
<path style="fill:#E6E9ED;" d="M254.551,370.4c4.172-4.172,4.172-10.922,0-15.094c-4.164-4.156-10.914-4.156-15.078,0
	c-4.172,4.172-4.172,10.922,0,15.094C243.637,374.557,250.387,374.557,254.551,370.4z"/>
</svg>