<?xml version="1.0" encoding="iso-8859-1"?>
<!-- Uploaded to: SVG Repo, www.svgrepo.com, Generator: SVG Repo Mixer Tools -->
<svg height="800px" width="800px" version="1.1" id="Layer_1" xmlns="http://www.w3.org/2000/svg" xmlns:xlink="http://www.w3.org/1999/xlink" 
	 viewBox="0 0 512 512" xml:space="preserve">
<path style="fill:#58595B;" d="M256.548,512L256.548,512c-5.963,0-11.746-0.776-17.25-2.234
	c-28.764-7.616-49.965-33.823-49.965-64.982V190.117h134.432v254.666C323.764,481.906,293.671,512,256.548,512z"/>
<path style="fill:#414042;" d="M289.287,190.117v254.666c0,31.162-21.209,57.362-49.978,64.976
	c5.502,1.456,11.279,2.241,17.238,2.241l0,0c37.122,0,67.217-30.094,67.217-67.217V190.117H289.287z"/>
<circle style="fill:#F2BA43;" cx="256.59" cy="456.521" r="10.599"/>
<g>
	<path style="fill:#D1D3D4;" d="M154.352,0c-4.925,0-8.916,3.991-8.916,8.916v42.6c0,4.925,3.991,8.916,8.916,8.916
		s8.916-3.991,8.916-8.916v-42.6C163.269,3.991,159.278,0,154.352,0z"/>
	<path style="fill:#D1D3D4;" d="M357.647,0c-4.925,0-8.916,3.991-8.916,8.916v42.6c0,4.925,3.991,8.916,8.916,8.916
		s8.916-3.991,8.916-8.916v-42.6C366.563,3.991,362.572,0,357.647,0z"/>
	<path style="fill:#D1D3D4;" d="M241.479,0c-4.925,0-8.916,3.991-8.916,8.916v42.6c0,4.925,3.991,8.916,8.916,8.916
		c4.925,0,8.916-3.991,8.916-8.916v-42.6C250.395,3.991,246.403,0,241.479,0z"/>
	<path style="fill:#D1D3D4;" d="M270.52,0c-4.925,0-8.916,3.991-8.916,8.916v42.6c0,4.925,3.991,8.916,8.916,8.916
		c4.925,0,8.916-3.991,8.916-8.916v-42.6C279.437,3.991,275.446,0,270.52,0z"/>
	<path style="fill:#D1D3D4;" d="M328.604,0c-4.925,0-8.916,3.991-8.916,8.916v42.6c0,4.925,3.991,8.916,8.916,8.916
		c4.925,0,8.916-3.991,8.916-8.916v-42.6C337.521,3.991,333.53,0,328.604,0z"/>
	<path style="fill:#D1D3D4;" d="M299.563,0c-4.925,0-8.916,3.991-8.916,8.916v42.6c0,4.925,3.991,8.916,8.916,8.916
		c4.925,0,8.916-3.991,8.916-8.916v-42.6C308.479,3.991,304.488,0,299.563,0z"/>
	<path style="fill:#D1D3D4;" d="M183.395,0c-4.925,0-8.916,3.991-8.916,8.916v42.6c0,4.925,3.991,8.916,8.916,8.916
		c4.925,0,8.916-3.991,8.916-8.916v-42.6C192.311,3.991,188.319,0,183.395,0z"/>
	<path style="fill:#D1D3D4;" d="M212.436,0c-4.925,0-8.916,3.991-8.916,8.916v42.6c0,4.925,3.991,8.916,8.916,8.916
		c4.925,0,8.916-3.991,8.916-8.916v-42.6C221.353,3.991,217.362,0,212.436,0z"/>
</g>
<path style="fill:#414042;" d="M322.668,192.314H189.332c-24.243,0-43.896-19.653-43.896-43.896V51.517h181.102h40.025v96.901
	c0,23.877-19.063,43.301-42.8,43.882C323.399,192.309,323.034,192.314,322.668,192.314z"/>
<path style="fill:#2F2F30;" d="M326.538,51.517v96.901c0,24.243-19.653,43.896-43.895,43.896h40.025
	c24.243,0,43.896-19.653,43.896-43.896V51.517H326.538z"/>
<path style="fill:#F1F2F2;" d="M304.462,143.478h-99.896c-6.421,0-11.626-5.205-11.626-11.626v-30.096
	c0-6.421,5.205-11.626,11.626-11.626h99.896c6.421,0,11.626,5.205,11.626,11.626v30.096
	C316.088,138.273,310.883,143.478,304.462,143.478z"/>
<path style="fill:#D1D3D4;" d="M298.344,132.755h-87.66c-1.93,0-3.493-1.563-3.493-3.493v-24.915c0-1.93,1.563-3.493,3.493-3.493
	h87.66c1.93,0,3.493,1.563,3.493,3.493v24.915C301.837,131.191,300.272,132.755,298.344,132.755z"/>
<path style="fill:#8EC444;" d="M256.594,400.261L256.594,400.261c-14.773,0-26.749-11.977-26.749-26.749v-79.653
	c0-14.773,11.977-26.749,26.749-26.749l0,0c14.773,0,26.749,11.977,26.749,26.749v79.653
	C283.343,388.284,271.368,400.261,256.594,400.261z"/>
<path style="fill:#6EAF45;" d="M256.594,340.905L256.594,340.905c-9.568,0-17.324-7.756-17.324-17.324V295.21
	c0-9.568,7.756-17.324,17.324-17.324l0,0c9.568,0,17.324,7.756,17.324,17.324v28.371
	C273.919,333.147,266.162,340.905,256.594,340.905z"/>
</svg>